<?xml version="1.0" encoding="us-ascii" standalone="no"?><svg xmlns="http://www.w3.org/2000/svg" xmlns:xlink="http://www.w3.org/1999/xlink" contentStyleType="text/css" height="685.2px" preserveAspectRatio="none" style="width:795px;height:685px;background:#FFFFFF;" version="1.1" viewBox="0 0 795 685" width="795.6px" zoomAndPan="magnify"><defs/><g><!--cluster WorkerPool--><g id="cluster_WorkerPool"><path d="M10.2,7.2164 L109.8,7.2164 A4.5,4.5 0 0 1 112.8,10.2164 L121.2,36.7617 L665.4,36.7617 A3,3 0 0 1 668.4,39.7617 L668.4,673.8164 A3,3 0 0 1 665.4,676.8164 L10.2,676.8164 A3,3 0 0 1 7.2,673.8164 L7.2,10.2164 A3,3 0 0 1 10.2,7.2164 " fill="none" style="stroke:#EEEEEE;stroke-width:1.7999999999999998;"/><line style="stroke:#EEEEEE;stroke-width:1.7999999999999998;" x1="7.2" x2="121.2" y1="36.7617" y2="36.7617"/><text fill="#000000" font-family="sans-serif" font-size="16.8" font-weight="bold" lengthAdjust="spacing" textLength="98.4" x="12" y="27.7453">WorkerPool</text></g><!--cluster Workers--><g id="cluster_Workers"><path d="M48.6,200.4164 L120.6,200.4164 A4.5,4.5 0 0 1 123.6,203.4164 L132,229.9617 L627,229.9617 A3,3 0 0 1 630,232.9617 L630,635.4164 A3,3 0 0 1 627,638.4164 L48.6,638.4164 A3,3 0 0 1 45.6,635.4164 L45.6,203.4164 A3,3 0 0 1 48.6,200.4164 " fill="none" style="stroke:#EEEEEE;stroke-width:1.7999999999999998;"/><line style="stroke:#EEEEEE;stroke-width:1.7999999999999998;" x1="45.6" x2="132" y1="229.9617" y2="229.9617"/><text fill="#000000" font-family="sans-serif" font-size="16.8" font-weight="bold" lengthAdjust="spacing" textLength="70.8" x="50.4" y="220.9453">Workers</text></g><!--cluster Group1--><g id="cluster_Group1"><path d="M96.6,264.0164 L160.2,264.0164 A4.5,4.5 0 0 1 163.2,267.0164 L171.6,293.5617 L406.2,293.5617 A3,3 0 0 1 409.2,296.5617 L409.2,371.4164 A3,3 0 0 1 406.2,374.4164 L96.6,374.4164 A3,3 0 0 1 93.6,371.4164 L93.6,267.0164 A3,3 0 0 1 96.6,264.0164 " fill="#EEEEEE" style="stroke:#EEEEEE;stroke-width:1.7999999999999998;"/><line style="stroke:#EEEEEE;stroke-width:1.7999999999999998;" x1="93.6" x2="171.6" y1="293.5617" y2="293.5617"/><text fill="#000000" font-family="sans-serif" font-size="16.8" font-weight="bold" lengthAdjust="spacing" textLength="62.4" x="98.4" y="284.5453">Group1</text></g><!--cluster Group2--><g id="cluster_Group2"><path d="M147,489.6164 L210.6,489.6164 A4.5,4.5 0 0 1 213.6,492.6164 L222,519.1617 L389.4,519.1617 A3,3 0 0 1 392.4,522.1617 L392.4,597.0164 A3,3 0 0 1 389.4,600.0164 L147,600.0164 A3,3 0 0 1 144,597.0164 L144,492.6164 A3,3 0 0 1 147,489.6164 " fill="#EEEEEE" style="stroke:#EEEEEE;stroke-width:1.7999999999999998;"/><line style="stroke:#EEEEEE;stroke-width:1.7999999999999998;" x1="144" x2="222" y1="519.1617" y2="519.1617"/><text fill="#000000" font-family="sans-serif" font-size="16.8" font-weight="bold" lengthAdjust="spacing" textLength="62.4" x="148.8" y="510.1453">Group2</text></g><!--cluster Group3--><g id="cluster_Group3"><path d="M441,264.0164 L504.6,264.0164 A4.5,4.5 0 0 1 507.6,267.0164 L516,293.5617 L588.6,293.5617 A3,3 0 0 1 591.6,296.5617 L591.6,371.4164 A3,3 0 0 1 588.6,374.4164 L441,374.4164 A3,3 0 0 1 438,371.4164 L438,267.0164 A3,3 0 0 1 441,264.0164 " fill="#EEEEEE" style="stroke:#EEEEEE;stroke-width:1.7999999999999998;"/><line style="stroke:#EEEEEE;stroke-width:1.7999999999999998;" x1="438" x2="516" y1="293.5617" y2="293.5617"/><text fill="#000000" font-family="sans-serif" font-size="16.8" font-weight="bold" lengthAdjust="spacing" textLength="62.4" x="442.8" y="284.5453">Group3</text></g><!--entity Watcher--><g id="elem_Watcher"><polygon fill="#90EE90" points="27,51.6164,126.6,51.6164,138.6,74.7891,126.6,97.9617,27,97.9617,39,74.7891" style="stroke:#181818;stroke-width:0.6;"/><text fill="#000000" font-family="sans-serif" font-size="16.8" lengthAdjust="spacing" textLength="63.6" x="51" y="81.7453">Watcher</text></g><!--entity Reactor1--><g id="elem_Reactor1"><polygon fill="#ADD8E6" points="272.4,308.4164,378,308.4164,390,331.5891,378,354.7617,272.4,354.7617,284.4,331.5891" style="stroke:#181818;stroke-width:0.6;"/><text fill="#000000" font-family="sans-serif" font-size="16.8" lengthAdjust="spacing" textLength="69.6" x="296.4" y="338.5453">Reactor1</text></g><!--entity Reactor2--><g id="elem_Reactor2"><polygon fill="#ADD8E6" points="112.8,308.4164,218.4,308.4164,230.4,331.5891,218.4,354.7617,112.8,354.7617,124.8,331.5891" style="stroke:#181818;stroke-width:0.6;"/><text fill="#000000" font-family="sans-serif" font-size="16.8" lengthAdjust="spacing" textLength="69.6" x="136.8" y="338.5453">Reactor2</text></g><!--entity Job1--><g id="elem_Job1"><polygon fill="#FFFFE0" points="289.2,534.0164,361.2,534.0164,373.2,557.1891,361.2,580.3617,289.2,580.3617,301.2,557.1891" style="stroke:#181818;stroke-width:0.6;"/><text fill="#000000" font-family="sans-serif" font-size="16.8" lengthAdjust="spacing" textLength="36" x="313.2" y="564.1453">Job1</text></g><!--entity Job2--><g id="elem_Job2"><polygon fill="#FFFFE0" points="163.2,534.0164,235.2,534.0164,247.2,557.1891,235.2,580.3617,163.2,580.3617,175.2,557.1891" style="stroke:#181818;stroke-width:0.6;"/><text fill="#000000" font-family="sans-serif" font-size="16.8" lengthAdjust="spacing" textLength="36" x="187.2" y="564.1453">Job2</text></g><!--entity Service1--><g id="elem_Service1"><polygon fill="#FFB6C1" points="457.8,308.4164,559.8,308.4164,571.8,331.5891,559.8,354.7617,457.8,354.7617,469.8,331.5891" style="stroke:#181818;stroke-width:0.6;"/><text fill="#000000" font-family="sans-serif" font-size="16.8" lengthAdjust="spacing" textLength="66" x="481.8" y="338.5453">Service1</text></g><!--entity RabbitMQ--><g id="elem_RabbitMQ"><path d="M694.2,427.2164 L781.8,427.2164 C787.8,427.2164 787.8,444.3891 787.8,444.3891 C787.8,444.3891 787.8,461.5617 781.8,461.5617 L694.2,461.5617 C688.2,461.5617 688.2,444.3891 688.2,444.3891 C688.2,444.3891 688.2,427.2164 694.2,427.2164 " fill="#F1F1F1" style="stroke:#181818;stroke-width:0.6;"/><path d="M781.8,427.2164 C775.8,427.2164 775.8,444.3891 775.8,444.3891 C775.8,461.5617 781.8,461.5617 781.8,461.5617 " fill="none" style="stroke:#181818;stroke-width:0.6;"/><text fill="#000000" font-family="sans-serif" font-size="16.8" lengthAdjust="spacing" textLength="75.6" x="694.2" y="451.3453">RabbitMQ</text></g><!--link Watcher to Workers--><g id="link_Watcher_Workers"><path d="M55.2,98.7164 C55.2,114.1124 55.2,135.7237 55.2,159.6365 C55.2,171.5929 55.2,184.1247 55.2,196.7426 C55.2,197.5313 55.2,198.3202 55.2,199.1094 C55.2,199.504 55.2,199.8986 55.2,200.2933 " fill="none" id="Watcher-Workers" style="stroke:#808080;stroke-width:1.2;"/></g><!--link Reactor1 to Job1--><g id="link_Reactor1_Job1"><path d="M331.2,362.7284 C331.2,406.0604 331.2,483.1364 331.2,526.4804 " fill="none" id="Reactor1-Job1" style="stroke:#808080;stroke-width:1.2;stroke-dasharray:7.0,7.0;"/><polygon fill="#808080" points="331.2,355.5284,326.4,366.3284,331.2,361.5284,336,366.3284,331.2,355.5284" style="stroke:#808080;stroke-width:1.2;"/><polygon fill="#808080" points="331.2,533.6804,336,522.8804,331.2,527.6804,326.4,522.8804,331.2,533.6804" style="stroke:#808080;stroke-width:1.2;"/></g><!--link Reactor2 to Job2--><g id="link_Reactor2_Job2"><path d="M196.8,362.7284 C196.8,406.0604 196.8,483.1364 196.8,526.4804 " fill="none" id="Reactor2-Job2" style="stroke:#808080;stroke-width:1.2;stroke-dasharray:7.0,7.0;"/><polygon fill="#808080" points="196.8,355.5284,192,366.3284,196.8,361.5284,201.6,366.3284,196.8,355.5284" style="stroke:#808080;stroke-width:1.2;"/><polygon fill="#808080" points="196.8,533.6804,201.6,522.8804,196.8,527.6804,192,522.8804,196.8,533.6804" style="stroke:#808080;stroke-width:1.2;"/><text fill="#000000" font-family="sans-serif" font-size="15.6" lengthAdjust="spacing" textLength="146.4" x="49.2" y="439.8384">IPC between workers</text></g><!--reverse link Service1 to RabbitMQ--><g id="link_Service1_RabbitMQ"><path d="M579.48,332.4164 C645.612,332.4164 738,332.4164 738,332.4164 C738,332.4164 738,395.5244 738,427.0844 " fill="none" id="Service1-backto-RabbitMQ" style="stroke:#808080;stroke-width:1.2;stroke-dasharray:7.0,7.0;"/><polygon fill="#808080" points="572.28,332.4164,583.08,337.2164,578.28,332.4164,583.08,327.6164,572.28,332.4164" style="stroke:#808080;stroke-width:1.2;"/><text fill="#000000" font-family="sans-serif" font-size="15.6" lengthAdjust="spacing" textLength="98.4" x="602.88" y="327.6504">Monitor queue</text></g><!--link Service1 to Job1--><g id="link_Service1_Job1"><path d="M514.8,355.6004 C514.8,413.6684 514.8,558.0164 514.8,558.0164 C514.8,558.0164 434.724,558.0164 380.52,558.0164 " fill="none" id="Service1-to-Job1" style="stroke:#808080;stroke-width:1.2;stroke-dasharray:7.0,7.0;"/><polygon fill="#808080" points="373.32,558.0164,384.12,562.8164,379.32,558.0164,384.12,553.2164,373.32,558.0164" style="stroke:#808080;stroke-width:1.2;"/><text fill="#000000" font-family="sans-serif" font-size="15.6" lengthAdjust="spacing" textLength="146.4" x="367.2" y="522.7824">IPC between workers</text></g><!--SRC=[VPBHIyCm4CRVyrSS-Bp2wjiGOHio50Pp2k9ZcjtQq2nNhwbroFvtOqcpAblpa8VlVlc-ooLrgMqbMHx0Q8lkM24Gku947GixtCl6k5VySdEZStj0wq3v3Nb0pPcfNP8XXfkSyIW6jKggKkO8tmByMX3la0FwqArE7pe4-IJ4HuCDmbPccNRhPo4g9eLr3M_49VA6o7Wj-9yr7zLvHbewLQ0tzXSet8eHRG3-7Ar3YyFAYgcffg6ZGNrelqMf7F4q-2zCWsDSUeaxNKvEnvEVAEjJtz4OQgzHwMNgIkhjUEeBygTMs2Tlj2t_EPv-twwV-cGowGSiH9pLNP8azzq5H9nBrD8PF6wMaA5h_Lj1sv-EoPwCls86QxBQ6q3tMyvGJBZYzWC0]--></g></svg>